# xmcd CD database file
#
# Track frame offsets:
#	187
#	22650
#	46990
#	70257
#	92657
#	110390
#	133065
#	152987
#	175042
#
# Disc length: 2712 seconds
#
# Revision: 0
# Processed by: cddbd v1.5.2PL0 Copyright (c) Steve Scherf et al.
# Submitted via: CDex 1.51
#
DISCID=6b0a9609
DTITLE=高橋真梨子 - ＦＡＮＴＡＳＩＡ
DYEAR=1990
DGENRE=Pop
TTITLE0=ヒ・ラ・ヒ・ラ淫ら
TTITLE1=しばらくはRainy　day
TTITLE2=ノスタルジアagain
TTITLE3=TENDERLY
TTITLE4=DANCEはひとり
TTITLE5=パハロ　デル　ソル-太陽の鳥-
TTITLE6=時計仕掛けのエモーション
TTITLE7=遠いProphecy
TTITLE8=EVERYTIME　I　FEEL　YOUR　HEART
EXTD=YEAR: 1990
EXTT0=
EXTT1=
EXTT2=
EXTT3=
EXTT4=
EXTT5=
EXTT6=
EXTT7=
EXTT8=
PLAYORDER=
